# xmcd CD database file
#
# Track frame offsets:
#	150
#	11575
#	26764
#	45970
#	62324
#	76944
#	93584
#	109410
#	123054
#	136800
#	159527
#	177136
#	187875
#	201867
#	215291
#	231873
#
# Disc length: 3282 seconds
#
# Revision: 0
# Processed by: cddbd v1.5.2PL0 Copyright (c) Steve Scherf et al.
# Submitted via: CDex 1.79
#
DISCID=c40cd010
DTITLE=Frizzell and Friends - It`ll Be Alright
DYEAR=2011
DGENRE=Country
TTITLE0=David Frizzell feat. Amy Clawson and Jonathan Frizzell - It`ll Be Alright
TTITLE1=David Frizzell and Georgette Jones - Lefty and Jones
TTITLE2=Marty McIntosh - The American Night
TTITLE3=Amy Clawson - Someday
TTITLE4=David Frizzell - Take My X-Wife Please
TTITLE5=David Frizzell and Jimmy Fortune - Good-Bye
TTITLE6=David Frizzell and Allen Frizzell - Fill His Shoes
TTITLE7=Jonathan Frizzell - What`s This `Ol Country Boy Doing?
TTITLE8=Dean Johnston - What`s It Like
TTITLE9=David Frizzell - A Prayer To Mary
TTITLE10=David Frizzell - Say Hello To Heaven
TTITLE11=David Frizzell and Brittney Alexander - Lover`s Don`t Lie
TTITLE12=Amy Clawson and Coltrane - If You Got The Money, I`ve Got The Time
TTITLE13=David Frizzell - Yesterday Just Passed My Way
TTITLE14=David Frizzell - Always Late
TTITLE15=David Frizzell - I Love You A Thousand Ways
EXTD=YEAR: 2011
EXTT0=
EXTT1=
EXTT2=
EXTT3=
EXTT4=
EXTT5=
EXTT6=
EXTT7=
EXTT8=
EXTT9=
EXTT10=
EXTT11=
EXTT12=
EXTT13=
EXTT14=
EXTT15=
PLAYORDER=
